<svg width="924" height="70" viewBox="0 0 924 70" fill="none" xmlns="http://www.w3.org/2000/svg">
<path d="M41.496 56H10.032V2.8H41.496V8.576H16.568V25.828H39.368V31.452H16.568V50.224H41.496V56ZM58.6257 56H52.5457V2.8H59.1577L80.3617 45.208H80.5137V2.8H86.5937V56H80.1337L58.7777 13.592H58.6257V56ZM116.035 57.14C110.057 57.14 105.091 54.8093 101.139 50.148C97.238 45.4867 95.2874 38.3933 95.2874 28.868C95.2874 20.2547 97.2887 13.5667 101.291 8.804C105.294 4.04133 110.209 1.66 116.035 1.66C120.747 1.66 124.725 3.28133 127.967 6.524C131.261 9.81733 133.313 14.048 134.123 19.216L127.815 20.356C127.207 16.404 125.89 13.3133 123.863 11.084C121.887 8.804 119.278 7.664 116.035 7.664C111.83 7.664 108.461 9.488 105.927 13.136C103.394 16.784 102.127 22.028 102.127 28.868C102.127 36.012 103.369 41.5347 105.851 45.436C108.385 49.2867 111.779 51.212 116.035 51.212C119.835 51.212 122.85 49.8187 125.079 47.032C127.309 44.1947 128.373 40.42 128.271 35.708H114.895V29.932H134.579V35.1C134.579 41.94 132.831 47.336 129.335 51.288C125.89 55.1893 121.457 57.14 116.035 57.14ZM156.041 8.5H143.349V2.8H175.269V8.5H162.501V50.3H175.269V56H143.349V50.3H156.041V8.5ZM193.235 56H187.155V2.8H193.767L214.971 45.208H215.123V2.8H221.203V56H214.743L193.387 13.592H193.235V56ZM265.844 56H234.38V2.8H265.844V8.576H240.916V25.828H263.716V31.452H240.916V50.224H265.844V56ZM310.714 56H279.25V2.8H310.714V8.576H285.786V25.828H308.586V31.452H285.786V50.224H310.714V56ZM360.418 37.684L367.106 36.392C367.866 41.712 369.285 45.512 371.362 47.792C373.439 50.072 376.758 51.212 381.318 51.212C384.814 51.212 387.499 50.3507 389.374 48.628C391.249 46.9053 392.186 44.7013 392.186 42.016C392.186 39.2293 391.375 37.076 389.754 35.556C388.133 33.9853 384.485 32.1613 378.81 30.084C373.237 28.0573 369.133 25.98 366.498 23.852C364.066 21.724 362.85 18.8613 362.85 15.264C362.85 11.3627 364.319 8.12 367.258 5.536C370.197 2.952 374.098 1.66 378.962 1.66C383.522 1.66 387.449 2.92666 390.742 5.46C394.086 7.99333 396.062 11.616 396.67 16.328L390.362 17.696C389.146 11.008 385.346 7.664 378.962 7.664C375.973 7.664 373.617 8.37333 371.894 9.792C370.222 11.2107 369.386 13.0347 369.386 15.264C369.386 17.1893 370.146 18.8107 371.666 20.128C373.186 21.4453 376.53 23.0413 381.698 24.916C388.183 27.2973 392.642 29.628 395.074 31.908C397.455 34.1373 398.646 37.4053 398.646 41.712C398.646 46.0693 397.075 49.7427 393.934 52.732C390.843 55.6707 386.562 57.14 381.09 57.14C368.879 57.14 361.989 50.6547 360.418 37.684ZM458.23 56H451.618V2.8H482.474V8.576H458.23V27.804H480.346V33.352H458.23V56ZM510.548 51.212C514.601 51.212 517.818 49.3373 520.2 45.588C522.632 41.788 523.848 36.3413 523.848 29.248C523.848 22.3067 522.657 16.9867 520.276 13.288C517.894 9.53866 514.652 7.664 510.548 7.664C506.444 7.664 503.201 9.488 500.82 13.136C498.438 16.7333 497.248 22.0027 497.248 28.944C497.248 36.088 498.438 41.5853 500.82 45.436C503.201 49.2867 506.444 51.212 510.548 51.212ZM510.548 57.14C505.126 57.14 500.49 55.012 496.64 50.756C492.485 46.0947 490.408 38.824 490.408 28.944C490.408 20.3307 492.384 13.6173 496.336 8.804C500.338 4.04133 505.076 1.66 510.548 1.66C516.02 1.66 520.732 4.092 524.684 8.956C528.686 13.7693 530.688 20.5333 530.688 29.248C530.688 39.0773 528.585 46.2973 524.38 50.908C520.529 55.0627 515.918 57.14 510.548 57.14ZM545.994 56H539.534V2.8H556.406C562.08 2.8 566.488 4.168 569.63 6.904C572.771 9.58933 574.342 13.4907 574.342 18.608C574.342 22.7627 573.151 26.1573 570.77 28.792C568.439 31.376 565.222 33.048 561.118 33.808L572.974 56H565.906L554.354 34.264H545.994V56ZM545.994 8.576V28.64H556.026C559.724 28.64 562.612 27.8293 564.69 26.208C566.818 24.536 567.882 22.0027 567.882 18.608C567.882 11.92 563.879 8.576 555.874 8.576H545.994ZM630.353 56H624.273V2.8H630.885L652.089 45.208H652.241V2.8H658.321V56H651.861L630.505 13.592H630.353V56ZM702.963 56H671.499V2.8H702.963V8.576H678.035V25.828H700.835V31.452H678.035V50.224H702.963V56ZM724.121 56H716.673L710.669 2.8H717.129L721.309 46.728H721.461L729.061 15.72H733.089L740.613 46.728H740.765L744.945 2.8H751.405L745.401 56H738.029L731.113 27.88H730.961L724.121 56ZM833.713 56H802.249V2.8H833.713V8.576H808.785V25.828H831.585V31.452H808.785V50.224H833.713V56ZM852.363 56H845.903V2.8H862.775C868.449 2.8 872.857 4.168 875.999 6.904C879.14 9.58933 880.711 13.4907 880.711 18.608C880.711 22.7627 879.52 26.1573 877.139 28.792C874.808 31.376 871.591 33.048 867.487 33.808L879.343 56H872.275L860.723 34.264H852.363V56ZM852.363 8.576V28.64H862.395C866.093 28.64 868.981 27.8293 871.059 26.208C873.187 24.536 874.251 22.0027 874.251 18.608C874.251 11.92 870.248 8.576 862.243 8.576H852.363Z" fill="white"/>
<path fill-rule="evenodd" clip-rule="evenodd" d="M341.435 33.053C343.341 33.0511 345.227 32.6607 346.987 31.9041C348.747 31.1475 350.346 30.0395 351.692 28.6435C353.041 27.2504 354.111 25.5959 354.842 23.7746C355.573 21.9533 355.951 20.0007 355.952 18.0285C355.949 14.0442 354.416 10.2245 351.692 7.40953C350.346 6.01347 348.747 4.90551 346.987 4.14892C345.227 3.39233 343.341 3.00192 341.435 3H319.496V33.0289H325.616V9.30164H341.423C342.529 9.30103 343.624 9.52627 344.646 9.96445C345.667 10.4026 346.596 11.0451 347.377 11.8552C348.16 12.6637 348.781 13.6241 349.204 14.6814C349.627 15.7386 349.845 16.872 349.844 18.0165C349.844 19.1603 349.627 20.2929 349.203 21.3494C348.78 22.406 348.159 23.3657 347.377 24.1738C346.596 24.9838 345.667 25.6263 344.646 26.0645C343.624 26.5027 342.529 26.7279 341.423 26.7273H339.781V33.0289L341.435 33.053ZM333.731 34.7767C333.731 35.1094 333.731 41.9562 337.344 46.8789C343.77 55.738 350.994 55.738 355.766 55.738V49.3843C350.518 49.3843 346.47 48.9233 342.21 43.0386C339.886 39.8316 339.824 34.8048 339.824 34.7527L339.785 33.0369H333.735L333.731 34.7767ZM322.799 55.9999C324.898 55.9999 326.599 54.2458 326.599 52.0819C326.599 49.9181 324.898 48.1639 322.799 48.1639C320.701 48.1639 319 49.9181 319 52.0819C319 54.2458 320.701 55.9999 322.799 55.9999Z" fill="white"/>
<path d="M903.071 3H909.929L924 40.2972H917.141L906.5 12.0775L895.859 40.2972H889L903.071 3Z" fill="white"/>
<path d="M903.071 25.6781H909.929L921.372 56H914.513L906.5 34.7556L898.487 56H891.628L903.071 25.6781Z" fill="white"/>
</svg>
