<svg width="169" height="26" viewBox="0 0 169 26" fill="none" xmlns="http://www.w3.org/2000/svg">
<path d="M52.9603 8.89417H57.4346V10.6492H52.9588V17.7574C52.9588 18.9583 53.3671 19.3731 54.5492 19.3731H57.4346V21.1265H54.368C52.0965 21.1265 51.0515 20.1345 51.0515 17.988V10.6476H47.5293V8.89417H51.0515V4.97095H52.9603V8.89417ZM63.6395 4.97095H61.7306V8.89417H58.664V10.6476H61.7306V17.988C61.7306 20.1345 62.7757 21.1265 65.0471 21.1265H68.1137V19.3731H65.2284C64.0462 19.3731 63.6379 18.9583 63.6379 17.7574V10.6492H68.1137V8.89571H68.1153L63.6395 8.89417V4.97095ZM41.9613 4.97095L47.6863 21.1281H45.6418L44.6364 18.1969H37.2478L36.2378 21.1281H34.2604L39.9854 4.97095H41.9613ZM44.0666 16.5348L40.9512 7.45024L37.8206 16.5348H44.0666ZM118.729 14.9438C118.729 18.7757 116.435 21.4067 113.073 21.4067C111.392 21.4067 109.938 20.7381 108.938 19.5836H108.757V21.1296H107.031V4.9725H108.94V10.2576H109.052C110.031 9.17429 111.438 8.52738 113.073 8.52738C116.435 8.52738 118.729 11.1119 118.729 14.9438ZM116.823 14.9639C116.823 12.1952 115.212 10.2793 112.962 10.2793C110.711 10.2793 108.94 11.9414 108.94 13.811V16.0504C108.94 17.9431 110.713 19.6517 112.962 19.6517V19.6486C115.279 19.6486 116.823 17.7326 116.823 14.9639ZM81.4512 14.9423C81.4512 18.7742 79.0427 21.4051 75.5434 21.4051C72.0441 21.4051 69.6356 18.751 69.6356 14.9423C69.6356 11.1336 72.0441 8.52583 75.5434 8.52583C79.0427 8.52583 81.4512 11.1104 81.4512 14.9423ZM79.5424 14.967C79.5424 12.1983 77.9062 10.2824 75.5434 10.2824C73.1806 10.2824 71.5445 12.1983 71.5445 14.967C71.5445 17.7357 73.1806 19.6517 75.5434 19.6517C77.9062 19.6517 79.5424 17.7357 79.5424 14.967ZM127.138 14.3186L124.867 13.7181C123.391 13.325 122.754 12.887 122.754 12.0792C122.754 10.9479 123.822 10.2561 125.525 10.2561C127.434 10.2561 128.502 11.0871 128.615 12.61H130.546C130.432 10.0487 128.548 8.50107 125.594 8.50107C122.64 8.50107 120.845 9.86298 120.845 12.0792C120.845 13.7181 121.89 14.7565 124.185 15.357L126.456 15.9575C128.342 16.4419 129.091 16.9495 129.091 17.8502C129.091 18.9583 127.888 19.6501 125.979 19.6501C123.662 19.6501 122.503 18.8655 122.39 16.9263L120.458 16.9279C120.573 19.8823 122.413 21.4051 125.956 21.4051C129.091 21.4051 131 20.0664 131 17.8502C131 16.1649 129.955 15.0351 127.138 14.3186ZM85.7442 4.9725H83.8354V21.1296H92.5828V19.3762L85.7442 19.3746V4.9725ZM104.191 12.774V21.1296H102.465V19.7213L102.284 19.7198C101.557 20.7814 100.102 21.4051 98.3078 21.4051C95.7637 21.4051 94.1733 19.9736 94.1733 17.7125C94.1733 15.7733 95.6495 14.6652 98.5805 14.1808L102.284 13.5804V12.8205C102.284 11.2048 101.285 10.2824 99.5342 10.2824C97.671 10.2824 96.4218 11.2976 96.3304 12.8437H94.3987C94.4901 10.2127 96.5346 8.52738 99.5113 8.52738C102.488 8.52738 104.191 10.1663 104.191 12.774ZM102.284 16.3986V15.3121L99.1488 15.8213C97.0586 16.1448 96.0821 16.5131 96.0821 17.714C96.0821 18.915 97.0129 19.6532 98.6719 19.6532C100.693 19.6532 102.284 18.2217 102.284 16.3986ZM14.3798 9.90786L13.6547 9.48226C10.291 7.50905 7.54122 6.38857 5.53031 6.05738C2.87195 5.70452 2.18641 6.91012 1.9579 7.3125C1.34853 8.38345 1.55115 9.57512 2.54746 10.9185C2.11633 11.2914 1.7172 11.683 1.37138 12.0606C-0.132227 10.0626 -0.398825 8.20857 0.573114 6.5C1.77357 4.38905 4.06935 4.21726 5.77862 4.46024C7.96016 4.80071 10.7419 5.94131 14.2244 7.93929C14.2732 8.54905 14.3372 9.21143 14.3814 9.90786H14.3798ZM23.2888 14.0849C24.1632 14.5971 24.4618 15.7331 23.9575 16.6214C23.7961 16.9077 23.5691 17.1321 23.307 17.29C23.307 18.0932 23.109 18.8469 22.7388 19.4985C21.6526 21.4082 19.7575 21.7255 18.3453 21.6574C16.4898 21.597 14.197 20.8325 11.298 19.3561L12.1176 17.9152C17.0854 20.4704 20.1932 20.7304 21.354 18.686C21.5734 18.3006 21.6663 17.8796 21.6892 17.4138C21.6115 17.3813 21.5353 17.3457 21.4607 17.3024C20.5862 16.7901 20.2876 15.6542 20.7919 14.7658C21.2961 13.8775 22.4143 13.5742 23.2888 14.0864V14.0849ZM7.23349 10.9463C2.57031 14.0415 0.797056 16.6446 1.9579 18.689C2.17727 19.076 2.49109 19.3654 2.87652 19.6192C2.94202 19.5681 3.01058 19.5186 3.0837 19.4752C3.95814 18.9614 5.07633 19.2663 5.58058 20.1546C6.08635 21.043 5.78624 22.1774 4.9118 22.6912C4.03736 23.205 2.91917 22.9001 2.41492 22.0118C2.25192 21.7239 2.17422 21.4113 2.17118 21.1018C1.48716 20.701 0.943304 20.1515 0.573114 19.5C-0.511558 17.5902 0.164839 15.764 0.929593 14.5554C1.90915 12.952 3.70678 11.3177 6.41541 9.50548L7.23501 10.9463H7.23349ZM22.7403 6.5C23.9393 8.61095 22.9384 10.7173 21.8766 12.0993C20.4948 13.8481 18.132 15.7254 14.6876 17.7899C14.1437 17.5283 13.5465 17.2529 12.9311 16.9433L13.6562 16.5177C17.0199 14.5445 19.3507 12.6858 20.638 11.0825C22.2681 8.92048 21.5825 7.71488 21.354 7.3125C20.7447 6.24155 19.628 5.82369 17.9842 6.02798C17.8822 5.46155 17.7481 4.91524 17.5988 4.42155C20.0545 4.0981 21.7669 4.79143 22.7388 6.5H22.7403ZM14.4362 22.0536C14.9694 22.247 15.5026 22.4018 15.9977 22.5179C15.0456 24.8393 13.5983 26 11.656 26C9.25658 26 7.96168 24.0655 7.31423 22.4405C6.51443 20.3512 6.09549 17.3333 6.05741 13.2708C6.55252 12.9226 7.08571 12.5357 7.65699 12.1488V13C7.65699 16.9464 8.07593 19.9256 8.79956 21.8601C9.82786 24.375 11.1989 24.375 11.656 24.375C12.8747 24.375 13.7887 23.6012 14.4362 22.0536ZM6.7658 2.22238C6.7658 1.19631 7.58387 0.365238 8.5939 0.365238C8.91991 0.365238 9.22459 0.451905 9.48966 0.603571C10.1737 0.202738 10.9141 0 11.656 0C13.8268 0 15.0456 1.50893 15.6915 2.78571C16.5675 4.4494 17.0626 6.84821 17.253 10.1369H15.6153C15.3106 4.4881 13.9776 1.625 11.6544 1.625C11.2157 1.625 10.8105 1.75345 10.4022 1.96548C10.4144 2.0506 10.422 2.13571 10.422 2.22238C10.422 3.24845 9.60392 4.07952 8.5939 4.07952C7.58387 4.07952 6.7658 3.24845 6.7658 2.22238ZM9.52318 13C9.52318 11.8037 10.4784 10.8333 11.656 10.8333C12.8336 10.8333 13.7887 11.8037 13.7887 13C13.7887 14.1963 12.8336 15.1667 11.656 15.1667C10.4784 15.1667 9.52318 14.1963 9.52318 13Z" fill="white"/>
</svg>
