<svg width="302" height="78" viewBox="0 0 302 78" fill="none" xmlns="http://www.w3.org/2000/svg">
<path d="M20.208 35H0.336V1.4H20.208V5.048H4.464V15.944H18.864V19.496H4.464V31.352H20.208V35ZM31.0267 35H27.1867V1.4H31.3627L44.7547 28.184H44.8507V1.4H48.6908V35H44.6107L31.1227 8.216H31.0267V35ZM67.2855 35.72C63.5095 35.72 60.3735 34.248 57.8775 31.304C55.4135 28.36 54.1815 23.88 54.1815 17.864C54.1815 12.424 55.4455 8.2 57.9735 5.192C60.5015 2.184 63.6055 0.679998 67.2855 0.679998C70.2615 0.679998 72.7735 1.704 74.8215 3.752C76.9015 5.832 78.1975 8.504 78.7095 11.768L74.7255 12.488C74.3415 9.992 73.5095 8.04 72.2295 6.632C70.9815 5.192 69.3335 4.472 67.2855 4.472C64.6295 4.472 62.5015 5.624 60.9015 7.928C59.3015 10.232 58.5015 13.544 58.5015 17.864C58.5015 22.376 59.2855 25.864 60.8535 28.328C62.4535 30.76 64.5975 31.976 67.2855 31.976C69.6855 31.976 71.5895 31.096 72.9975 29.336C74.4055 27.544 75.0775 25.16 75.0135 22.184H66.5655V18.536H78.9975V21.8C78.9975 26.12 77.8935 29.528 75.6855 32.024C73.5095 34.488 70.7095 35.72 67.2855 35.72ZM92.5523 5H84.5363V1.4H104.696V5H96.6323V31.4H104.696V35H84.5363V31.4H92.5523V5ZM116.043 35H112.203V1.4H116.379L129.771 28.184H129.867V1.4H133.707V35H129.627L116.139 8.216H116.043V35ZM161.902 35H142.03V1.4H161.902V5.048H146.158V15.944H160.558V19.496H146.158V31.352H161.902V35ZM190.241 35H170.369V1.4H190.241V5.048H174.497V15.944H188.897V19.496H174.497V31.352H190.241V35ZM202.019 35H197.939V1.4H208.595C212.179 1.4 214.963 2.264 216.947 3.992C218.931 5.688 219.923 8.152 219.923 11.384C219.923 14.008 219.171 16.152 217.667 17.816C216.195 19.448 214.163 20.504 211.571 20.984L219.059 35H214.595L207.299 21.272H202.019V35ZM202.019 5.048V17.72H208.355C210.691 17.72 212.515 17.208 213.827 16.184C215.171 15.128 215.843 13.528 215.843 11.384C215.843 7.16 213.315 5.048 208.259 5.048H202.019ZM224.07 23.432L228.294 22.616C228.774 25.976 229.67 28.376 230.982 29.816C232.294 31.256 234.39 31.976 237.27 31.976C239.478 31.976 241.174 31.432 242.358 30.344C243.542 29.256 244.134 27.864 244.134 26.168C244.134 24.408 243.622 23.048 242.598 22.088C241.574 21.096 239.27 19.944 235.686 18.632C232.166 17.352 229.574 16.04 227.91 14.696C226.374 13.352 225.606 11.544 225.606 9.272C225.606 6.808 226.534 4.76 228.39 3.128C230.246 1.496 232.71 0.679998 235.782 0.679998C238.662 0.679998 241.142 1.48 243.222 3.08C245.334 4.68 246.582 6.968 246.966 9.944L242.982 10.808C242.214 6.584 239.814 4.472 235.782 4.472C233.894 4.472 232.406 4.92 231.318 5.816C230.262 6.712 229.734 7.864 229.734 9.272C229.734 10.488 230.214 11.512 231.174 12.344C232.134 13.176 234.246 14.184 237.51 15.368C241.606 16.872 244.422 18.344 245.958 19.784C247.462 21.192 248.214 23.256 248.214 25.976C248.214 28.728 247.222 31.048 245.238 32.936C243.286 34.792 240.582 35.72 237.126 35.72C229.414 35.72 225.062 31.624 224.07 23.432ZM4.896 77H0.72V43.4H20.208V47.048H4.896V59.192H18.864V62.696H4.896V77ZM37.9387 73.976C40.4988 73.976 42.5308 72.792 44.0347 70.424C45.5707 68.024 46.3387 64.584 46.3387 60.104C46.3387 55.72 45.5867 52.36 44.0827 50.024C42.5787 47.656 40.5307 46.472 37.9387 46.472C35.3467 46.472 33.2987 47.624 31.7947 49.928C30.2907 52.2 29.5387 55.528 29.5387 59.912C29.5387 64.424 30.2907 67.896 31.7947 70.328C33.2987 72.76 35.3467 73.976 37.9387 73.976ZM37.9387 77.72C34.5147 77.72 31.5867 76.376 29.1547 73.688C26.5307 70.744 25.2187 66.152 25.2187 59.912C25.2187 54.472 26.4667 50.232 28.9627 47.192C31.4907 44.184 34.4827 42.68 37.9387 42.68C41.3948 42.68 44.3708 44.216 46.8668 47.288C49.3948 50.328 50.6588 54.6 50.6588 60.104C50.6588 66.312 49.3308 70.872 46.6748 73.784C44.2428 76.408 41.3307 77.72 37.9387 77.72ZM60.3255 77H56.2455V43.4H66.9015C70.4855 43.4 73.2695 44.264 75.2535 45.992C77.2375 47.688 78.2295 50.152 78.2295 53.384C78.2295 56.008 77.4775 58.152 75.9735 59.816C74.5015 61.448 72.4695 62.504 69.8775 62.984L77.3655 77H72.9015L65.6055 63.272H60.3255V77ZM60.3255 47.048V59.72H66.6615C68.9975 59.72 70.8215 59.208 72.1335 58.184C73.4775 57.128 74.1495 55.528 74.1495 53.384C74.1495 49.16 71.6215 47.048 66.5655 47.048H60.3255ZM113.605 77H109.765V43.4H113.941L127.333 70.184H127.429V43.4H131.269V77H127.189L113.701 50.216H113.605V77ZM159.464 77H139.592V43.4H159.464V47.048H143.72V57.944H158.12V61.496H143.72V73.352H159.464V77ZM172.827 77H168.123L164.331 43.4H168.411L171.051 71.144H171.147L175.947 51.56H178.491L183.243 71.144H183.339L185.979 43.4H190.059L186.267 77H181.611L177.243 59.24H177.147L172.827 77ZM242.043 77H222.171V43.4H242.043V47.048H226.299V57.944H240.699V61.496H226.299V73.352H242.043V77ZM253.822 77H249.742V43.4H260.398C263.982 43.4 266.766 44.264 268.75 45.992C270.734 47.688 271.726 50.152 271.726 53.384C271.726 56.008 270.974 58.152 269.47 59.816C267.998 61.448 265.966 62.504 263.374 62.984L270.862 77H266.398L259.102 63.272H253.822V77ZM253.822 47.048V59.72H260.158C262.494 59.72 264.318 59.208 265.63 58.184C266.974 57.128 267.646 55.528 267.646 53.384C267.646 49.16 265.118 47.048 260.062 47.048H253.822ZM301.313 77H297.137L294.881 70.424H281.105L279.041 77H274.865L286.001 43.4H290.177L301.313 77ZM282.209 66.968H293.729L288.113 48.728H288.017L282.209 66.968Z" fill="white"/>
</svg>
